<svg width="83" height="18" viewBox="0 0 83 18" fill="none" xmlns="http://www.w3.org/2000/svg">
<path d="M81.3288 15.0937C81.9633 14.9728 82.3797 14.3604 82.2589 13.7259L80.2893 3.38555C80.1684 2.75102 79.5561 2.3346 78.9215 2.45547C78.287 2.57633 77.8706 3.1887 77.9914 3.82324L79.7422 13.0147L70.5508 14.7654C69.9162 14.8863 69.4998 15.4986 69.6207 16.1332C69.7415 16.7677 70.3539 17.1841 70.9885 17.0633L81.3288 15.0937ZM0.888949 14.7717L1.5875 15.7098C14.3166 6.23071 47.9367 -7.1987 80.4523 14.9119L81.11 13.9447L81.7676 12.9776C48.1216 -9.90175 13.3746 4.01564 0.190397 13.8337L0.888949 14.7717Z" fill="#5A8B6B"/>
</svg>
