<svg width="13" height="14" viewBox="0 0 13 14" fill="none" xmlns="http://www.w3.org/2000/svg">
<path d="M1.99871 13.2013C1.66628 13.1993 1.38941 13.0862 1.16812 12.8622C0.946826 12.6382 0.837203 12.3599 0.83925 12.0275L0.887138 4.25058C0.889185 3.91815 1.00223 3.64129 1.22626 3.41999C1.4503 3.1987 1.72853 3.08908 2.06097 3.09112L3.78295 3.10173C3.7879 2.29712 4.07242 1.61629 4.63651 1.05923C5.20047 0.502047 5.88476 0.225933 6.68936 0.230887C7.49396 0.235842 8.1748 0.520362 8.73186 1.08445C9.28904 1.64841 9.56516 2.3327 9.5602 3.1373L11.2822 3.1479C11.6146 3.14995 11.8915 3.26299 12.1128 3.48703C12.3341 3.71107 12.4437 3.9893 12.4416 4.32173L12.3938 12.0986C12.3917 12.4311 12.2787 12.7079 12.0546 12.9292C11.8306 13.1505 11.5524 13.2601 11.2199 13.2581L1.99871 13.2013ZM6.64489 7.45245C7.4495 7.45741 8.13378 7.18129 8.69775 6.62411C9.26183 6.06705 9.54635 5.38622 9.55131 4.58161L8.82915 4.57717C8.82544 5.17896 8.61167 5.68919 8.18781 6.10786C7.76396 6.52652 7.25114 6.734 6.64934 6.7303C6.04754 6.72659 5.53731 6.51281 5.11865 6.08896C4.69998 5.66511 4.49251 5.15228 4.49621 4.55049L3.77405 4.54604C3.7691 5.35064 4.04521 6.03493 4.6024 6.59889C5.15946 7.16298 5.84029 7.4475 6.64489 7.45245ZM4.5051 3.10617L8.83804 3.13285C8.84175 2.53106 8.63427 2.01823 8.21561 1.59438C7.79694 1.17053 7.28671 0.956749 6.68491 0.953044C6.08312 0.949338 5.57029 1.15682 5.14644 1.57548C4.72259 1.99415 4.50881 2.50438 4.5051 3.10617Z" fill="white"/>
</svg>
