<svg width="14" height="15" viewBox="0 0 14 15" fill="none" xmlns="http://www.w3.org/2000/svg">
<path d="M3.3291 11.7824C2.91381 11.7824 2.56164 11.6373 2.27257 11.347C1.9836 11.0568 1.83912 10.7043 1.83912 10.2897H1.04883V4.64854C1.04883 4.38583 1.13681 4.16648 1.31278 3.99052C1.48875 3.81455 1.70809 3.72656 1.97081 3.72656H9.52172V5.78996H10.8388L12.8143 8.4459V10.2897H11.8923C11.8923 10.7043 11.747 11.0568 11.4563 11.347C11.1655 11.6373 10.8125 11.7824 10.3972 11.7824C9.98181 11.7824 9.62963 11.6373 9.34066 11.347C9.0516 11.0568 8.90707 10.7043 8.90707 10.2897H4.82436C4.82436 10.7068 4.67897 11.0598 4.38819 11.3488C4.09751 11.6379 3.74448 11.7824 3.3291 11.7824ZM3.33167 11.2117C3.58849 11.2117 3.80635 11.1222 3.98527 10.9433C4.16419 10.7644 4.25365 10.5465 4.25365 10.2897C4.25365 10.0329 4.16419 9.81503 3.98527 9.63612C3.80635 9.4572 3.58849 9.36774 3.33167 9.36774C3.07485 9.36774 2.85698 9.4572 2.67806 9.63612C2.49924 9.81503 2.40983 10.0329 2.40983 10.2897C2.40983 10.5465 2.49924 10.7644 2.67806 10.9433C2.85698 11.1222 3.07485 11.2117 3.33167 11.2117ZM1.61954 9.71901H1.98836C2.06959 9.46733 2.23495 9.25074 2.48445 9.06926C2.73394 8.88777 3.01635 8.79703 3.33167 8.79703C3.63243 8.79703 3.91122 8.88597 4.16804 9.06384C4.42486 9.24161 4.59388 9.46 4.67512 9.71901H8.95101V4.29727H1.97081C1.88301 4.29727 1.8025 4.33384 1.72926 4.40699C1.65611 4.48014 1.61954 4.56065 1.61954 4.64854V9.71901ZM10.3998 11.2117C10.6566 11.2117 10.8744 11.1222 11.0532 10.9433C11.2321 10.7644 11.3216 10.5465 11.3216 10.2897C11.3216 10.0329 11.2321 9.81503 11.0532 9.63612C10.8744 9.4572 10.6566 9.36774 10.3998 9.36774C10.1429 9.36774 9.92507 9.4572 9.74615 9.63612C9.56724 9.81503 9.47778 10.0329 9.47778 10.2897C9.47778 10.5465 9.56724 10.7644 9.74615 10.9433C9.92507 11.1222 10.1429 11.2117 10.3998 11.2117ZM9.52172 8.57759H12.2106L10.5315 6.36067H9.52172V8.57759Z" fill="white"/>
</svg>
