<svg width="16" height="18" viewBox="0 0 16 18" fill="none" xmlns="http://www.w3.org/2000/svg">
<path d="M2.44142 17.45C2.01776 17.4474 1.66492 17.3033 1.3829 17.0178C1.10088 16.7323 0.961179 16.3777 0.963788 15.9541L1.02482 6.04309C1.02743 5.61943 1.17149 5.26659 1.457 4.98457C1.74252 4.70255 2.0971 4.56285 2.52076 4.56546L4.71527 4.57897C4.72159 3.55357 5.08418 2.68591 5.80306 1.97599C6.52179 1.26591 7.39385 0.914023 8.41924 0.920337C9.44464 0.926651 10.3123 1.28925 11.0222 2.00813C11.7323 2.72685 12.0842 3.59891 12.0779 4.62431L14.2724 4.63782C14.696 4.64043 15.0489 4.78449 15.3309 5.07C15.6129 5.35552 15.7526 5.7101 15.75 6.13376L15.689 16.0447C15.6864 16.4684 15.5423 16.8212 15.2568 17.1033C14.9713 17.3853 14.6167 17.525 14.1931 17.5224L2.44142 17.45ZM8.36257 10.1236C9.38797 10.1299 10.26 9.77802 10.9788 9.06794C11.6976 8.35801 12.0602 7.49035 12.0665 6.46496L11.1462 6.45929C11.1415 7.22623 10.8691 7.87647 10.3289 8.41002C9.78873 8.94357 9.13518 9.20799 8.36824 9.20326C7.6013 9.19854 6.95106 8.9261 6.41751 8.38594C5.88396 7.84577 5.61954 7.19222 5.62426 6.42529L4.70394 6.41962C4.69762 7.44502 5.04951 8.31708 5.75959 9.0358C6.46951 9.75468 7.33718 10.1173 8.36257 10.1236ZM5.6356 4.58464L11.1575 4.61864C11.1623 3.8517 10.8979 3.19815 10.3643 2.65799C9.83076 2.11783 9.18051 1.84538 8.41358 1.84066C7.64664 1.83594 6.99309 2.10035 6.45293 2.6339C5.91276 3.16745 5.64032 3.8177 5.6356 4.58464Z" fill="#060500"/>
</svg>
