<svg width="16" height="17" viewBox="0 0 16 17" fill="none" xmlns="http://www.w3.org/2000/svg">
<path d="M3.84468 12.9919C3.37711 12.9919 2.9806 12.8285 2.65515 12.5016C2.3298 12.1749 2.16712 11.7781 2.16712 11.3113H1.27734V4.95993C1.27734 4.66414 1.3764 4.41718 1.57453 4.21906C1.77265 4.02094 2.0196 3.92188 2.31539 3.92188H10.8169V6.24504H12.2998L14.524 9.23534V11.3113H13.4859C13.4859 11.7781 13.3223 12.1749 12.995 12.5016C12.6676 12.8285 12.2702 12.9919 11.8026 12.9919C11.3349 12.9919 10.9384 12.8285 10.6131 12.5016C10.2876 12.1749 10.1249 11.7781 10.1249 11.3113H5.52818C5.52818 11.7809 5.36449 12.1784 5.03711 12.5037C4.70983 12.8292 4.31236 12.9919 3.84468 12.9919ZM3.84757 12.3493C4.13672 12.3493 4.38202 12.2486 4.58346 12.0472C4.7849 11.8457 4.88562 11.6004 4.88562 11.3113C4.88562 11.0221 4.7849 10.7768 4.58346 10.5754C4.38202 10.374 4.13672 10.2732 3.84757 10.2732C3.55842 10.2732 3.31313 10.374 3.11168 10.5754C2.91035 10.7768 2.80968 11.0221 2.80968 11.3113C2.80968 11.6004 2.91035 11.8457 3.11168 12.0472C3.31313 12.2486 3.55842 12.3493 3.84757 12.3493ZM1.9199 10.6687H2.33515C2.42661 10.3854 2.61279 10.1415 2.8937 9.93717C3.1746 9.73284 3.49256 9.63067 3.84757 9.63067C4.1862 9.63067 4.50009 9.73081 4.78924 9.93107C5.07839 10.1312 5.26869 10.3771 5.36015 10.6687H10.1743V4.56443H2.31539C2.21655 4.56443 2.12589 4.60561 2.04343 4.68796C1.96108 4.77032 1.9199 4.86097 1.9199 4.95993V10.6687ZM11.8055 12.3493C12.0946 12.3493 12.3399 12.2486 12.5412 12.0472C12.7427 11.8457 12.8434 11.6004 12.8434 11.3113C12.8434 11.0221 12.7427 10.7768 12.5412 10.5754C12.3399 10.374 12.0946 10.2732 11.8055 10.2732C11.5163 10.2732 11.271 10.374 11.0696 10.5754C10.8682 10.7768 10.7674 11.0221 10.7674 11.3113C10.7674 11.6004 10.8682 11.8457 11.0696 12.0472C11.271 12.2486 11.5163 12.3493 11.8055 12.3493ZM10.8169 9.38361H13.8443L11.9538 6.8876H10.8169V9.38361Z" fill="#1E293B"/>
</svg>
