<svg width="17" height="19" viewBox="0 0 17 19" fill="none" xmlns="http://www.w3.org/2000/svg">
<path d="M2.10964 18.1797C1.64931 18.1797 1.26497 18.0255 0.956641 17.7172C0.648307 17.4089 0.494141 17.0245 0.494141 16.5642V5.79519C0.494141 5.33485 0.648307 4.95052 0.956641 4.64219C1.26497 4.33385 1.64931 4.17969 2.10964 4.17969H4.49414C4.49414 3.06552 4.88231 2.12035 5.65864 1.34419C6.43481 0.567855 7.37997 0.179688 8.49414 0.179688C9.60831 0.179688 10.5535 0.567855 11.3296 1.34419C12.106 2.12035 12.4941 3.06552 12.4941 4.17969H14.8786C15.339 4.17969 15.7233 4.33385 16.0316 4.64219C16.34 4.95052 16.4941 5.33485 16.4941 5.79519V16.5642C16.4941 17.0245 16.34 17.4089 16.0316 17.7172C15.7233 18.0255 15.339 18.1797 14.8786 18.1797H2.10964ZM8.49414 10.1797C9.60831 10.1797 10.5535 9.79152 11.3296 9.01519C12.106 8.23902 12.4941 7.29385 12.4941 6.17969H11.4941C11.4941 7.01302 11.2025 7.72135 10.6191 8.30469C10.0358 8.88802 9.32747 9.17969 8.49414 9.17969C7.66081 9.17969 6.95247 8.88802 6.36914 8.30469C5.78581 7.72135 5.49414 7.01302 5.49414 6.17969H4.49414C4.49414 7.29385 4.88231 8.23902 5.65864 9.01519C6.43481 9.79152 7.37997 10.1797 8.49414 10.1797ZM5.49414 4.17969H11.4941C11.4941 3.34635 11.2025 2.63802 10.6191 2.05469C10.0358 1.47135 9.32747 1.17969 8.49414 1.17969C7.66081 1.17969 6.95247 1.47135 6.36914 2.05469C5.78581 2.63802 5.49414 3.34635 5.49414 4.17969Z" fill="white"/>
</svg>
