<svg width="16" height="15" viewBox="0 0 16 15" fill="none" xmlns="http://www.w3.org/2000/svg">
<path d="M7.68573 12.3488C6.50545 12.3488 5.46974 11.9865 4.57862 11.262C3.68749 10.5376 3.1249 9.60921 2.89085 8.47696C2.86565 8.38631 2.87472 8.30258 2.91805 8.22576C2.96137 8.14893 3.02954 8.10422 3.12254 8.09163C3.21002 8.07903 3.28684 8.09798 3.35301 8.14847C3.41918 8.19887 3.46609 8.27057 3.49375 8.36357C3.71591 9.34054 4.21699 10.1465 4.99699 10.7816C5.77708 11.4167 6.67333 11.7342 7.68573 11.7342C8.88415 11.7342 9.90075 11.3168 10.7355 10.482C11.5703 9.64721 11.9877 8.6306 11.9877 7.43219C11.9877 6.23378 11.5703 5.21718 10.7355 4.38238C9.90075 3.54759 8.88415 3.1302 7.68573 3.1302C7.04986 3.1302 6.45224 3.26453 5.89288 3.5332C5.33341 3.80187 4.83976 4.17179 4.41191 4.64296H5.62938C5.71644 4.64296 5.78942 4.67246 5.84832 4.73146C5.90722 4.79046 5.93666 4.86354 5.93666 4.95071C5.93666 5.03787 5.90722 5.1108 5.84832 5.1695C5.78942 5.22819 5.71644 5.25753 5.62938 5.25753H3.88016C3.73952 5.25753 3.62163 5.20995 3.52647 5.1148C3.43132 5.01964 3.38374 4.90175 3.38374 4.76111V3.01204C3.38374 2.92498 3.41324 2.852 3.47224 2.7931C3.53123 2.73421 3.60432 2.70476 3.69148 2.70476C3.77865 2.70476 3.85158 2.73421 3.91027 2.7931C3.96896 2.852 3.99831 2.92498 3.99831 3.01204V4.17266C4.47347 3.65099 5.03033 3.2444 5.66886 2.95289C6.30751 2.66138 6.9798 2.51562 7.68573 2.51562C8.36791 2.51562 9.00685 2.64387 9.60258 2.90035C10.1983 3.15683 10.7189 3.50785 11.1645 3.95341C11.6101 4.39898 11.9611 4.91957 12.2176 5.51519C12.4741 6.11071 12.6023 6.74951 12.6023 7.43158C12.6023 8.11355 12.4741 8.75255 12.2176 9.34858C11.9611 9.94461 11.6101 10.4654 11.1645 10.911C10.7189 11.3565 10.1983 11.7076 9.60258 11.964C9.00685 12.2205 8.36791 12.3488 7.68573 12.3488ZM8.02851 7.30451L9.87222 9.14823C9.92968 9.20579 9.96041 9.27631 9.96441 9.35979C9.9683 9.44337 9.93757 9.51784 9.87222 9.58319C9.80677 9.64854 9.7343 9.68121 9.65482 9.68121C9.57523 9.68121 9.50271 9.64854 9.43726 9.58319L7.56282 7.70875C7.50925 7.65518 7.47104 7.599 7.4482 7.5402C7.42536 7.48131 7.41394 7.42046 7.41394 7.35767V4.66662C7.41394 4.57956 7.44344 4.50658 7.50244 4.44768C7.56133 4.38879 7.63442 4.35934 7.72168 4.35934C7.80885 4.35934 7.88178 4.38879 7.94047 4.44768C7.99916 4.50658 8.02851 4.57956 8.02851 4.66662V7.30451Z" fill="#1E293B"/>
</svg>
