<svg width="16" height="16" viewBox="0 0 16 16" fill="none" xmlns="http://www.w3.org/2000/svg">
<path d="M8.18769 12.8331C7.0074 12.8331 5.9717 12.4709 5.08057 11.7464C4.18944 11.0219 3.62685 10.0936 3.3928 8.96134C3.36761 8.87069 3.37667 8.78695 3.42 8.71013C3.46333 8.63331 3.53149 8.5886 3.6245 8.576C3.71197 8.5634 3.78879 8.58235 3.85496 8.63285C3.92113 8.68324 3.96804 8.75494 3.9957 8.84795C4.21787 9.82491 4.71895 10.6309 5.49894 11.266C6.27903 11.901 7.17528 12.2186 8.18769 12.2186C9.3861 12.2186 10.4027 11.8012 11.2375 10.9664C12.0723 10.1316 12.4897 9.11498 12.4897 7.91657C12.4897 6.71815 12.0723 5.70155 11.2375 4.86676C10.4027 4.03197 9.3861 3.61457 8.18769 3.61457C7.55181 3.61457 6.95419 3.74891 6.39483 4.01758C5.83536 4.28625 5.34171 4.65617 4.91387 5.12734H6.13133C6.2184 5.12734 6.29138 5.15684 6.35027 5.21583C6.40917 5.27483 6.43862 5.34792 6.43862 5.43508C6.43862 5.52225 6.40917 5.59518 6.35027 5.65387C6.29138 5.71256 6.2184 5.74191 6.13133 5.74191H4.38211C4.24148 5.74191 4.12358 5.69433 4.02842 5.59917C3.93327 5.50402 3.88569 5.38612 3.88569 5.24549V3.49642C3.88569 3.40936 3.91519 3.33638 3.97419 3.27748C4.03319 3.21858 4.10627 3.18913 4.19344 3.18913C4.2806 3.18913 4.35353 3.21858 4.41222 3.27748C4.47092 3.33638 4.50026 3.40936 4.50026 3.49642V4.65704C4.97543 4.13537 5.53228 3.72878 6.17082 3.43727C6.80946 3.14576 7.48175 3 8.18769 3C8.86986 3 9.50881 3.12824 10.1045 3.38472C10.7003 3.6412 11.2209 3.99222 11.6665 4.43779C12.112 4.88335 12.463 5.40394 12.7195 5.99957C12.976 6.59509 13.1043 7.23388 13.1043 7.91595C13.1043 8.59792 12.976 9.23692 12.7195 9.83295C12.463 10.429 12.112 10.9498 11.6665 11.3953C11.2209 11.8409 10.7003 12.1919 10.1045 12.4484C9.50881 12.7049 8.86986 12.8331 8.18769 12.8331ZM8.53046 7.78889L10.3742 9.6326C10.4316 9.69017 10.4624 9.76069 10.4664 9.84417C10.4703 9.92775 10.4395 10.0022 10.3742 10.0676C10.3087 10.1329 10.2363 10.1656 10.1568 10.1656C10.0772 10.1656 10.0047 10.1329 9.93921 10.0676L8.06477 8.19312C8.0112 8.13955 7.973 8.08337 7.95015 8.02458C7.92731 7.96568 7.91589 7.90484 7.91589 7.84205V5.151C7.91589 5.06393 7.94539 4.99095 8.00439 4.93206C8.06329 4.87316 8.13637 4.84371 8.22364 4.84371C8.3108 4.84371 8.38373 4.87316 8.44243 4.93206C8.50112 4.99095 8.53046 5.06393 8.53046 5.151V7.78889Z" fill="#1E293B"/>
</svg>
