<svg width="17" height="16" viewBox="0 0 17 16" fill="none" xmlns="http://www.w3.org/2000/svg">
<path d="M4.34468 12.4763C3.87711 12.4763 3.4806 12.3128 3.15515 11.986C2.8298 11.6593 2.66712 11.2625 2.66712 10.7957H1.77734V4.4443C1.77734 4.14851 1.8764 3.90155 2.07453 3.70343C2.27265 3.50531 2.5196 3.40625 2.81539 3.40625H11.3169V5.72942H12.7998L15.024 8.71972V10.7957H13.9859C13.9859 11.2625 13.8223 11.6593 13.495 11.986C13.1676 12.3128 12.7702 12.4763 12.3026 12.4763C11.8349 12.4763 11.4384 12.3128 11.1131 11.986C10.7876 11.6593 10.6249 11.2625 10.6249 10.7957H6.02818C6.02818 11.2653 5.86449 11.6627 5.53711 11.9881C5.20983 12.3135 4.81236 12.4763 4.34468 12.4763ZM4.34757 11.8337C4.63672 11.8337 4.88202 11.733 5.08346 11.5315C5.2849 11.3301 5.38562 11.0848 5.38562 10.7957C5.38562 10.5065 5.2849 10.2612 5.08346 10.0598C4.88202 9.85833 4.63672 9.75761 4.34757 9.75761C4.05842 9.75761 3.81313 9.85833 3.61168 10.0598C3.41035 10.2612 3.30968 10.5065 3.30968 10.7957C3.30968 11.0848 3.41035 11.3301 3.61168 11.5315C3.81313 11.733 4.05842 11.8337 4.34757 11.8337ZM2.4199 10.1531H2.83515C2.92661 9.86973 3.11279 9.62588 3.3937 9.42155C3.6746 9.21722 3.99256 9.11505 4.34757 9.11505C4.6862 9.11505 5.00009 9.21518 5.28924 9.41544C5.57839 9.6156 5.76869 9.86149 5.86015 10.1531H10.6743V4.04881H2.81539C2.71655 4.04881 2.62589 4.08998 2.54343 4.17234C2.46108 4.25469 2.4199 4.34535 2.4199 4.4443V10.1531ZM12.3055 11.8337C12.5946 11.8337 12.8399 11.733 13.0412 11.5315C13.2427 11.3301 13.3434 11.0848 13.3434 10.7957C13.3434 10.5065 13.2427 10.2612 13.0412 10.0598C12.8399 9.85833 12.5946 9.75761 12.3055 9.75761C12.0163 9.75761 11.771 9.85833 11.5696 10.0598C11.3682 10.2612 11.2674 10.5065 11.2674 10.7957C11.2674 11.0848 11.3682 11.3301 11.5696 11.5315C11.771 11.733 12.0163 11.8337 12.3055 11.8337ZM11.3169 8.86799H14.3443L12.4538 6.37197H11.3169V8.86799Z" fill="#1E293B"/>
</svg>
