<svg width="34" height="38" viewBox="0 0 34 38" fill="none" xmlns="http://www.w3.org/2000/svg">
<path d="M33.6419 32.7045C33.8506 33.0116 33.771 33.4297 33.464 33.6385L28.4606 37.0408C28.1536 37.2496 27.7354 37.1699 27.5266 36.8629C27.3179 36.5559 27.3975 36.1377 27.7045 35.9289L32.152 32.9047L29.1277 28.4572C28.9189 28.1502 28.9986 27.7321 29.3056 27.5233C29.6126 27.3145 30.0308 27.3941 30.2396 27.7012L33.6419 32.7045ZM0.816273 0.140625L1.48147 0.0432787C2.80243 9.06978 11.0089 28.1931 33.2117 32.4222L33.0859 33.0826L32.9601 33.743C9.98541 29.3668 1.51926 9.58725 0.151073 0.237971L0.816273 0.140625Z" fill="white"/>
</svg>
