<svg width="34" height="38" viewBox="0 0 34 38" fill="none" xmlns="http://www.w3.org/2000/svg">
<path d="M0.391336 32.7045C0.182554 33.0116 0.262202 33.4297 0.569233 33.6385L5.5726 37.0408C5.87963 37.2496 6.29778 37.1699 6.50657 36.8629C6.71535 36.5559 6.6357 36.1377 6.32867 35.9289L1.88123 32.9047L4.90549 28.4572C5.11427 28.1502 5.03462 27.7321 4.72759 27.5233C4.42056 27.3145 4.00241 27.3941 3.79363 27.7012L0.391336 32.7045ZM33.2169 0.140625L32.5517 0.0432787C31.2308 9.06978 23.0243 28.1931 0.821473 32.4222L0.947266 33.0826L1.07306 33.743C24.0478 29.3668 32.5139 9.58725 33.8821 0.237971L33.2169 0.140625Z" fill="white"/>
</svg>
