<svg width="14" height="14" viewBox="0 0 14 14" fill="none" xmlns="http://www.w3.org/2000/svg">
<path d="M7.18515 11.093C6.13684 11.093 5.21694 10.7713 4.42545 10.1278C3.63397 9.48434 3.13429 8.65978 2.92641 7.65414C2.90403 7.57363 2.91208 7.49926 2.95056 7.43103C2.98904 7.36279 3.04959 7.32308 3.13219 7.31189C3.20989 7.3007 3.27812 7.31753 3.33689 7.36238C3.39566 7.40714 3.43732 7.47083 3.46189 7.55343C3.65921 8.42116 4.10426 9.13704 4.79704 9.70109C5.48991 10.2651 6.28595 10.5472 7.18515 10.5472C8.24956 10.5472 9.15249 10.1764 9.89394 9.43499C10.6354 8.69354 11.0061 7.79061 11.0061 6.72619C11.0061 5.66178 10.6354 4.75885 9.89394 4.0174C9.15249 3.27595 8.24956 2.90523 7.18515 2.90523C6.62037 2.90523 6.08958 3.02454 5.59276 3.26317C5.09585 3.5018 4.6574 3.83036 4.27739 4.24884H5.35872C5.43605 4.24884 5.50087 4.27504 5.55318 4.32745C5.6055 4.37985 5.63165 4.44476 5.63165 4.52218C5.63165 4.5996 5.6055 4.66437 5.55318 4.7165C5.50087 4.76863 5.43605 4.7947 5.35872 4.7947H3.80509C3.68018 4.7947 3.57547 4.75244 3.49095 4.66792C3.40644 4.5834 3.36418 4.47869 3.36418 4.35378V2.80029C3.36418 2.72296 3.39038 2.65814 3.44278 2.60583C3.49518 2.55352 3.5601 2.52736 3.63752 2.52736C3.71494 2.52736 3.77971 2.55352 3.83184 2.60583C3.88397 2.65814 3.91003 2.72296 3.91003 2.80029V3.83113C4.33207 3.36779 4.82665 3.00667 5.3938 2.74775C5.96103 2.48883 6.55814 2.35938 7.18515 2.35938C7.79104 2.35938 8.35855 2.47328 8.88766 2.70108C9.41677 2.92888 9.8792 3.24065 10.2749 3.6364C10.6707 4.03214 10.9825 4.49452 11.2103 5.02354C11.4381 5.55247 11.552 6.11984 11.552 6.72565C11.552 7.33136 11.4381 7.89891 11.2103 8.4283C10.9825 8.95768 10.6707 9.42025 10.2749 9.81599C9.8792 10.2117 9.41677 10.5235 8.88766 10.7513C8.35855 10.9791 7.79104 11.093 7.18515 11.093ZM7.4896 6.61279L9.12715 8.25035C9.17819 8.30148 9.20548 8.36411 9.20903 8.43826C9.21249 8.51249 9.1852 8.57863 9.12715 8.63668C9.06902 8.69472 9.00465 8.72374 8.93406 8.72374C8.86337 8.72374 8.79896 8.69472 8.74083 8.63668L7.07598 6.97183C7.0284 6.92425 6.99446 6.87435 6.97417 6.82213C6.95389 6.76982 6.94374 6.71578 6.94374 6.66001V4.26986C6.94374 4.19253 6.96994 4.12771 7.02235 4.0754C7.07466 4.02309 7.13957 3.99693 7.21708 3.99693C7.2945 3.99693 7.35927 4.02309 7.4114 4.0754C7.46353 4.12771 7.4896 4.19253 7.4896 4.26986V6.61279Z" fill="white"/>
</svg>
